<mxfile host="app.diagrams.net" modified="2022-06-30T09:19:18.882Z" agent="5.0 (Macintosh; Intel Mac OS X 10_15_7) AppleWebKit/537.36 (KHTML, like Gecko) Chrome/97.0.4692.99 Safari/537.36" etag="-HWXLzDtA1PylX89NBAC" version="20.0.3" type="github">
  <diagram id="B8uwFWocY-uwwRqm4x8P" name="Page-1">
    <mxGraphModel dx="2253" dy="794" grid="1" gridSize="10" guides="1" tooltips="1" connect="1" arrows="1" fold="1" page="1" pageScale="1" pageWidth="827" pageHeight="1169" math="0" shadow="0">
      <root>
        <mxCell id="0" />
        <mxCell id="1" parent="0" />
        <mxCell id="QJylgjxsBixMPj3OxCuE-1" value="日志(需更新至V4版本)" style="swimlane;fontStyle=0;childLayout=stackLayout;horizontal=1;startSize=30;horizontalStack=0;resizeParent=1;resizeParentMax=0;resizeLast=0;collapsible=1;marginBottom=0;fontSize=14;" parent="1" vertex="1">
          <mxGeometry x="40" y="244" width="250" height="100" as="geometry" />
        </mxCell>
        <mxCell id="QJylgjxsBixMPj3OxCuE-2" value="eleme_allowance_dish_log_d_v3" style="text;align=left;verticalAlign=middle;spacingLeft=4;spacingRight=4;overflow=hidden;points=[[0,0.5],[1,0.5]];portConstraint=eastwest;rotatable=0;fontSize=14;" parent="QJylgjxsBixMPj3OxCuE-1" vertex="1">
          <mxGeometry y="30" width="250" height="30" as="geometry" />
        </mxCell>
        <mxCell id="QJylgjxsBixMPj3OxCuE-3" value="2022.1.23-2022.6.21" style="text;align=left;verticalAlign=middle;spacingLeft=4;spacingRight=4;overflow=hidden;points=[[0,0.5],[1,0.5]];portConstraint=eastwest;rotatable=0;fontSize=14;" parent="QJylgjxsBixMPj3OxCuE-1" vertex="1">
          <mxGeometry y="60" width="250" height="40" as="geometry" />
        </mxCell>
        <mxCell id="QJylgjxsBixMPj3OxCuE-4" value="井冈山历史菜品" style="swimlane;fontStyle=0;childLayout=stackLayout;horizontal=1;startSize=30;horizontalStack=0;resizeParent=1;resizeParentMax=0;resizeLast=0;collapsible=1;marginBottom=0;fontSize=14;fillColor=#d5e8d4;strokeColor=#82b366;" parent="1" vertex="1">
          <mxGeometry x="1080" y="504" width="310" height="90" as="geometry" />
        </mxCell>
        <mxCell id="QJylgjxsBixMPj3OxCuE-5" value="eleme_allowance_dish_food_history_stat_d_v3" style="text;strokeColor=none;fillColor=none;align=left;verticalAlign=middle;spacingLeft=4;spacingRight=4;overflow=hidden;points=[[0,0.5],[1,0.5]];portConstraint=eastwest;rotatable=0;fontSize=14;" parent="QJylgjxsBixMPj3OxCuE-4" vertex="1">
          <mxGeometry y="30" width="310" height="30" as="geometry" />
        </mxCell>
        <mxCell id="QJylgjxsBixMPj3OxCuE-6" value="2022.6.27" style="text;strokeColor=none;fillColor=none;align=left;verticalAlign=middle;spacingLeft=4;spacingRight=4;overflow=hidden;points=[[0,0.5],[1,0.5]];portConstraint=eastwest;rotatable=0;fontSize=14;" parent="QJylgjxsBixMPj3OxCuE-4" vertex="1">
          <mxGeometry y="60" width="310" height="30" as="geometry" />
        </mxCell>
        <mxCell id="QJylgjxsBixMPj3OxCuE-7" value="" style="endArrow=none;html=1;rounded=0;exitX=0.548;exitY=-0.017;exitDx=0;exitDy=0;exitPerimeter=0;" parent="1" source="QJylgjxsBixMPj3OxCuE-1" edge="1">
          <mxGeometry width="50" height="50" relative="1" as="geometry">
            <mxPoint x="570" y="204" as="sourcePoint" />
            <mxPoint x="640" y="114" as="targetPoint" />
          </mxGeometry>
        </mxCell>
        <mxCell id="QJylgjxsBixMPj3OxCuE-8" value="曝光日志" style="swimlane;fontStyle=0;childLayout=stackLayout;horizontal=1;startSize=30;horizontalStack=0;resizeParent=1;resizeParentMax=0;resizeLast=0;collapsible=1;marginBottom=0;fontSize=14;" parent="1" vertex="1">
          <mxGeometry x="-200" y="454" width="250" height="90" as="geometry" />
        </mxCell>
        <mxCell id="QJylgjxsBixMPj3OxCuE-9" value="dwd_alsc_log_exp_base_di" style="text;align=left;verticalAlign=middle;spacingLeft=4;spacingRight=4;overflow=hidden;points=[[0,0.5],[1,0.5]];portConstraint=eastwest;rotatable=0;fontSize=14;" parent="QJylgjxsBixMPj3OxCuE-8" vertex="1">
          <mxGeometry y="30" width="250" height="30" as="geometry" />
        </mxCell>
        <mxCell id="QJylgjxsBixMPj3OxCuE-10" value="2021.1.3-2022.6.27" style="text;align=left;verticalAlign=middle;spacingLeft=4;spacingRight=4;overflow=hidden;points=[[0,0.5],[1,0.5]];portConstraint=eastwest;rotatable=0;fontSize=14;" parent="QJylgjxsBixMPj3OxCuE-8" vertex="1">
          <mxGeometry y="60" width="250" height="30" as="geometry" />
        </mxCell>
        <mxCell id="QJylgjxsBixMPj3OxCuE-12" value="订单归因日志" style="swimlane;fontStyle=0;childLayout=stackLayout;horizontal=1;startSize=30;horizontalStack=0;resizeParent=1;resizeParentMax=0;resizeLast=0;collapsible=1;marginBottom=0;fontSize=14;" parent="1" vertex="1">
          <mxGeometry x="100" y="539" width="250" height="90" as="geometry" />
        </mxCell>
        <mxCell id="QJylgjxsBixMPj3OxCuE-13" value="dwd_alsc_log_lead_order_result_di" style="text;align=left;verticalAlign=middle;spacingLeft=4;spacingRight=4;overflow=hidden;points=[[0,0.5],[1,0.5]];portConstraint=eastwest;rotatable=0;fontSize=14;" parent="QJylgjxsBixMPj3OxCuE-12" vertex="1">
          <mxGeometry y="30" width="250" height="30" as="geometry" />
        </mxCell>
        <mxCell id="QJylgjxsBixMPj3OxCuE-14" value="2021.4.4-2022.6.27" style="text;align=left;verticalAlign=middle;spacingLeft=4;spacingRight=4;overflow=hidden;points=[[0,0.5],[1,0.5]];portConstraint=eastwest;rotatable=0;fontSize=14;" parent="QJylgjxsBixMPj3OxCuE-12" vertex="1">
          <mxGeometry y="60" width="250" height="30" as="geometry" />
        </mxCell>
        <mxCell id="QJylgjxsBixMPj3OxCuE-15" value="埋点日志" style="swimlane;fontStyle=0;childLayout=stackLayout;horizontal=1;startSize=30;horizontalStack=0;resizeParent=1;resizeParentMax=0;resizeLast=0;collapsible=1;marginBottom=0;fontSize=14;" parent="1" vertex="1">
          <mxGeometry x="-110" y="694" width="250" height="90" as="geometry" />
        </mxCell>
        <mxCell id="QJylgjxsBixMPj3OxCuE-16" value="dwd_alsc_log_clk_base_di" style="text;align=left;verticalAlign=middle;spacingLeft=4;spacingRight=4;overflow=hidden;points=[[0,0.5],[1,0.5]];portConstraint=eastwest;rotatable=0;fontSize=14;" parent="QJylgjxsBixMPj3OxCuE-15" vertex="1">
          <mxGeometry y="30" width="250" height="30" as="geometry" />
        </mxCell>
        <mxCell id="QJylgjxsBixMPj3OxCuE-17" value="2021.1.2-2022.6.27" style="text;align=left;verticalAlign=middle;spacingLeft=4;spacingRight=4;overflow=hidden;points=[[0,0.5],[1,0.5]];portConstraint=eastwest;rotatable=0;fontSize=14;" parent="QJylgjxsBixMPj3OxCuE-15" vertex="1">
          <mxGeometry y="60" width="250" height="30" as="geometry" />
        </mxCell>
        <mxCell id="QJylgjxsBixMPj3OxCuE-18" value="" style="endArrow=none;html=1;rounded=0;entryX=0.476;entryY=1.033;entryDx=0;entryDy=0;entryPerimeter=0;exitX=0.5;exitY=0;exitDx=0;exitDy=0;" parent="1" source="QJylgjxsBixMPj3OxCuE-8" target="QJylgjxsBixMPj3OxCuE-3" edge="1">
          <mxGeometry width="50" height="50" relative="1" as="geometry">
            <mxPoint x="170" y="414" as="sourcePoint" />
            <mxPoint x="220" y="364" as="targetPoint" />
          </mxGeometry>
        </mxCell>
        <mxCell id="QJylgjxsBixMPj3OxCuE-19" value="" style="endArrow=none;html=1;rounded=0;exitX=0.56;exitY=0;exitDx=0;exitDy=0;exitPerimeter=0;" parent="1" source="QJylgjxsBixMPj3OxCuE-15" edge="1">
          <mxGeometry width="50" height="50" relative="1" as="geometry">
            <mxPoint x="130" y="424" as="sourcePoint" />
            <mxPoint x="160" y="334" as="targetPoint" />
          </mxGeometry>
        </mxCell>
        <mxCell id="QJylgjxsBixMPj3OxCuE-20" value="" style="endArrow=none;html=1;rounded=0;entryX=0.488;entryY=1.1;entryDx=0;entryDy=0;entryPerimeter=0;exitX=0.476;exitY=-0.022;exitDx=0;exitDy=0;exitPerimeter=0;" parent="1" source="QJylgjxsBixMPj3OxCuE-12" target="QJylgjxsBixMPj3OxCuE-3" edge="1">
          <mxGeometry width="50" height="50" relative="1" as="geometry">
            <mxPoint x="240" y="424" as="sourcePoint" />
            <mxPoint x="290" y="374" as="targetPoint" />
          </mxGeometry>
        </mxCell>
        <mxCell id="QJylgjxsBixMPj3OxCuE-21" value="" style="endArrow=none;html=1;rounded=0;entryX=0.5;entryY=1;entryDx=0;entryDy=0;exitX=0.544;exitY=-0.011;exitDx=0;exitDy=0;exitPerimeter=0;" parent="1" source="QJylgjxsBixMPj3OxCuE-22" edge="1">
          <mxGeometry width="50" height="50" relative="1" as="geometry">
            <mxPoint x="615" y="244" as="sourcePoint" />
            <mxPoint x="635" y="114" as="targetPoint" />
          </mxGeometry>
        </mxCell>
        <mxCell id="QJylgjxsBixMPj3OxCuE-22" value="用户画像" style="swimlane;fontStyle=0;childLayout=stackLayout;horizontal=1;startSize=30;horizontalStack=0;resizeParent=1;resizeParentMax=0;resizeLast=0;collapsible=1;marginBottom=0;fontSize=14;fillColor=#d5e8d4;strokeColor=#82b366;" parent="1" vertex="1">
          <mxGeometry x="413" y="274" width="250" height="90" as="geometry" />
        </mxCell>
        <mxCell id="QJylgjxsBixMPj3OxCuE-23" value="eleme_user_profile_d" style="text;strokeColor=none;fillColor=none;align=left;verticalAlign=middle;spacingLeft=4;spacingRight=4;overflow=hidden;points=[[0,0.5],[1,0.5]];portConstraint=eastwest;rotatable=0;fontSize=14;" parent="QJylgjxsBixMPj3OxCuE-22" vertex="1">
          <mxGeometry y="30" width="250" height="30" as="geometry" />
        </mxCell>
        <mxCell id="QJylgjxsBixMPj3OxCuE-24" value="2021.12.23-2022.6.27" style="text;strokeColor=none;fillColor=none;align=left;verticalAlign=middle;spacingLeft=4;spacingRight=4;overflow=hidden;points=[[0,0.5],[1,0.5]];portConstraint=eastwest;rotatable=0;fontSize=14;" parent="QJylgjxsBixMPj3OxCuE-22" vertex="1">
          <mxGeometry y="60" width="250" height="30" as="geometry" />
        </mxCell>
        <mxCell id="QJylgjxsBixMPj3OxCuE-25" value="用户统计" style="swimlane;fontStyle=0;childLayout=stackLayout;horizontal=1;startSize=30;horizontalStack=0;resizeParent=1;resizeParentMax=0;resizeLast=0;collapsible=1;marginBottom=0;fontSize=14;fillColor=#d5e8d4;strokeColor=#82b366;" parent="1" vertex="1">
          <mxGeometry x="560" y="414" width="320" height="90" as="geometry" />
        </mxCell>
        <mxCell id="QJylgjxsBixMPj3OxCuE-26" value="eleme_allowance_dish_user_history_stat_d_v3" style="text;strokeColor=none;fillColor=none;align=left;verticalAlign=middle;spacingLeft=4;spacingRight=4;overflow=hidden;points=[[0,0.5],[1,0.5]];portConstraint=eastwest;rotatable=0;fontSize=14;" parent="QJylgjxsBixMPj3OxCuE-25" vertex="1">
          <mxGeometry y="30" width="320" height="30" as="geometry" />
        </mxCell>
        <mxCell id="QJylgjxsBixMPj3OxCuE-27" value="2022.6.27" style="text;strokeColor=none;fillColor=none;align=left;verticalAlign=middle;spacingLeft=4;spacingRight=4;overflow=hidden;points=[[0,0.5],[1,0.5]];portConstraint=eastwest;rotatable=0;fontSize=14;" parent="QJylgjxsBixMPj3OxCuE-25" vertex="1">
          <mxGeometry y="60" width="320" height="30" as="geometry" />
        </mxCell>
        <mxCell id="QJylgjxsBixMPj3OxCuE-28" value="" style="endArrow=none;html=1;rounded=0;entryX=0.5;entryY=1;entryDx=0;entryDy=0;" parent="1" source="QJylgjxsBixMPj3OxCuE-25" edge="1">
          <mxGeometry width="50" height="50" relative="1" as="geometry">
            <mxPoint x="680" y="284" as="sourcePoint" />
            <mxPoint x="635" y="114" as="targetPoint" />
          </mxGeometry>
        </mxCell>
        <mxCell id="QJylgjxsBixMPj3OxCuE-29" value="UI表" style="swimlane;fontStyle=0;childLayout=stackLayout;horizontal=1;startSize=30;horizontalStack=0;resizeParent=1;resizeParentMax=0;resizeLast=0;collapsible=1;marginBottom=0;fontSize=14;fillColor=#d5e8d4;strokeColor=#82b366;" parent="1" vertex="1">
          <mxGeometry x="400" y="574" width="330" height="90" as="geometry" />
        </mxCell>
        <mxCell id="QJylgjxsBixMPj3OxCuE-30" value="eleme_allowance_dish_user_item_behavior_d_v3" style="text;strokeColor=none;fillColor=none;align=left;verticalAlign=middle;spacingLeft=4;spacingRight=4;overflow=hidden;points=[[0,0.5],[1,0.5]];portConstraint=eastwest;rotatable=0;fontSize=14;" parent="QJylgjxsBixMPj3OxCuE-29" vertex="1">
          <mxGeometry y="30" width="330" height="30" as="geometry" />
        </mxCell>
        <mxCell id="QJylgjxsBixMPj3OxCuE-31" value="2022.5.28-2022.6.27" style="text;strokeColor=none;fillColor=none;align=left;verticalAlign=middle;spacingLeft=4;spacingRight=4;overflow=hidden;points=[[0,0.5],[1,0.5]];portConstraint=eastwest;rotatable=0;fontSize=14;" parent="QJylgjxsBixMPj3OxCuE-29" vertex="1">
          <mxGeometry y="60" width="330" height="30" as="geometry" />
        </mxCell>
        <mxCell id="QJylgjxsBixMPj3OxCuE-32" value="UV表" style="swimlane;fontStyle=0;childLayout=stackLayout;horizontal=1;startSize=30;horizontalStack=0;resizeParent=1;resizeParentMax=0;resizeLast=0;collapsible=1;marginBottom=0;fontSize=14;fillColor=#d5e8d4;strokeColor=#82b366;" parent="1" vertex="1">
          <mxGeometry x="630" y="694" width="290" height="90" as="geometry" />
        </mxCell>
        <mxCell id="QJylgjxsBixMPj3OxCuE-33" value="eleme_allowance_dish_user_visit_stat_d_v3" style="text;strokeColor=none;fillColor=none;align=left;verticalAlign=middle;spacingLeft=4;spacingRight=4;overflow=hidden;points=[[0,0.5],[1,0.5]];portConstraint=eastwest;rotatable=0;fontSize=14;" parent="QJylgjxsBixMPj3OxCuE-32" vertex="1">
          <mxGeometry y="30" width="290" height="30" as="geometry" />
        </mxCell>
        <mxCell id="QJylgjxsBixMPj3OxCuE-34" value="2022.5.28-2022.6.27" style="text;strokeColor=none;fillColor=none;align=left;verticalAlign=middle;spacingLeft=4;spacingRight=4;overflow=hidden;points=[[0,0.5],[1,0.5]];portConstraint=eastwest;rotatable=0;fontSize=14;" parent="QJylgjxsBixMPj3OxCuE-32" vertex="1">
          <mxGeometry y="60" width="290" height="30" as="geometry" />
        </mxCell>
        <mxCell id="QJylgjxsBixMPj3OxCuE-35" value="" style="endArrow=none;html=1;rounded=0;entryX=0.472;entryY=1.1;entryDx=0;entryDy=0;entryPerimeter=0;exitX=0.5;exitY=0;exitDx=0;exitDy=0;" parent="1" source="QJylgjxsBixMPj3OxCuE-29" target="QJylgjxsBixMPj3OxCuE-27" edge="1">
          <mxGeometry width="50" height="50" relative="1" as="geometry">
            <mxPoint x="660" y="574" as="sourcePoint" />
            <mxPoint x="710" y="524" as="targetPoint" />
          </mxGeometry>
        </mxCell>
        <mxCell id="QJylgjxsBixMPj3OxCuE-36" value="" style="endArrow=none;html=1;rounded=0;entryX=0.497;entryY=1.033;entryDx=0;entryDy=0;entryPerimeter=0;exitX=0.5;exitY=0;exitDx=0;exitDy=0;" parent="1" source="QJylgjxsBixMPj3OxCuE-32" target="QJylgjxsBixMPj3OxCuE-27" edge="1">
          <mxGeometry width="50" height="50" relative="1" as="geometry">
            <mxPoint x="770" y="614" as="sourcePoint" />
            <mxPoint x="820" y="564" as="targetPoint" />
          </mxGeometry>
        </mxCell>
        <mxCell id="QJylgjxsBixMPj3OxCuE-37" value="井冈山历史商铺" style="swimlane;fontStyle=0;childLayout=stackLayout;horizontal=1;startSize=30;horizontalStack=0;resizeParent=1;resizeParentMax=0;resizeLast=0;collapsible=1;marginBottom=0;fontSize=14;fillColor=#d5e8d4;strokeColor=#82b366;" parent="1" vertex="1">
          <mxGeometry x="970" y="664" width="310" height="90" as="geometry" />
        </mxCell>
        <mxCell id="QJylgjxsBixMPj3OxCuE-38" value="eleme_allowance_dish_shop_history_stat_d_v3" style="text;strokeColor=none;fillColor=none;align=left;verticalAlign=middle;spacingLeft=4;spacingRight=4;overflow=hidden;points=[[0,0.5],[1,0.5]];portConstraint=eastwest;rotatable=0;fontSize=14;" parent="QJylgjxsBixMPj3OxCuE-37" vertex="1">
          <mxGeometry y="30" width="310" height="30" as="geometry" />
        </mxCell>
        <mxCell id="QJylgjxsBixMPj3OxCuE-39" value="2022.6.27" style="text;strokeColor=none;fillColor=none;align=left;verticalAlign=middle;spacingLeft=4;spacingRight=4;overflow=hidden;points=[[0,0.5],[1,0.5]];portConstraint=eastwest;rotatable=0;fontSize=14;" parent="QJylgjxsBixMPj3OxCuE-37" vertex="1">
          <mxGeometry y="60" width="310" height="30" as="geometry" />
        </mxCell>
        <mxCell id="QJylgjxsBixMPj3OxCuE-40" value="全网菜品" style="swimlane;fontStyle=0;childLayout=stackLayout;horizontal=1;startSize=30;horizontalStack=0;resizeParent=1;resizeParentMax=0;resizeLast=0;collapsible=1;marginBottom=0;fontSize=14;fillColor=#d5e8d4;strokeColor=#82b366;" parent="1" vertex="1">
          <mxGeometry x="1200" y="214" width="310" height="90" as="geometry" />
        </mxCell>
        <mxCell id="QJylgjxsBixMPj3OxCuE-41" value="eleme_allowance_dish_food_history_stat_d_v2" style="text;strokeColor=none;fillColor=none;align=left;verticalAlign=middle;spacingLeft=4;spacingRight=4;overflow=hidden;points=[[0,0.5],[1,0.5]];portConstraint=eastwest;rotatable=0;fontSize=14;" parent="QJylgjxsBixMPj3OxCuE-40" vertex="1">
          <mxGeometry y="30" width="310" height="30" as="geometry" />
        </mxCell>
        <mxCell id="QJylgjxsBixMPj3OxCuE-42" value="2021.12.23-2022.6.27" style="text;strokeColor=none;fillColor=none;align=left;verticalAlign=middle;spacingLeft=4;spacingRight=4;overflow=hidden;points=[[0,0.5],[1,0.5]];portConstraint=eastwest;rotatable=0;fontSize=14;" parent="QJylgjxsBixMPj3OxCuE-40" vertex="1">
          <mxGeometry y="60" width="310" height="30" as="geometry" />
        </mxCell>
        <mxCell id="QJylgjxsBixMPj3OxCuE-43" value="全网商铺" style="swimlane;fontStyle=0;childLayout=stackLayout;horizontal=1;startSize=30;horizontalStack=0;resizeParent=1;resizeParentMax=0;resizeLast=0;collapsible=1;marginBottom=0;fontSize=14;fillColor=#d5e8d4;strokeColor=#82b366;" parent="1" vertex="1">
          <mxGeometry x="1110" y="334" width="310" height="90" as="geometry" />
        </mxCell>
        <mxCell id="QJylgjxsBixMPj3OxCuE-44" value="eleme_allowance_dish_shop_history_stat_d_v2" style="text;strokeColor=none;fillColor=none;align=left;verticalAlign=middle;spacingLeft=4;spacingRight=4;overflow=hidden;points=[[0,0.5],[1,0.5]];portConstraint=eastwest;rotatable=0;fontSize=14;" parent="QJylgjxsBixMPj3OxCuE-43" vertex="1">
          <mxGeometry y="30" width="310" height="30" as="geometry" />
        </mxCell>
        <mxCell id="QJylgjxsBixMPj3OxCuE-45" value="2021.12.23-2022.6.27" style="text;strokeColor=none;fillColor=none;align=left;verticalAlign=middle;spacingLeft=4;spacingRight=4;overflow=hidden;points=[[0,0.5],[1,0.5]];portConstraint=eastwest;rotatable=0;fontSize=14;" parent="QJylgjxsBixMPj3OxCuE-43" vertex="1">
          <mxGeometry y="60" width="310" height="30" as="geometry" />
        </mxCell>
        <mxCell id="QJylgjxsBixMPj3OxCuE-46" value="" style="endArrow=none;html=1;rounded=0;entryX=0.5;entryY=0;entryDx=0;entryDy=0;exitX=0.5;exitY=1;exitDx=0;exitDy=0;" parent="1" target="QJylgjxsBixMPj3OxCuE-40" edge="1">
          <mxGeometry width="50" height="50" relative="1" as="geometry">
            <mxPoint x="635" y="114" as="sourcePoint" />
            <mxPoint x="860" y="244" as="targetPoint" />
          </mxGeometry>
        </mxCell>
        <mxCell id="QJylgjxsBixMPj3OxCuE-47" value="" style="endArrow=none;html=1;rounded=0;exitX=0.5;exitY=0;exitDx=0;exitDy=0;" parent="1" source="QJylgjxsBixMPj3OxCuE-43" edge="1">
          <mxGeometry width="50" height="50" relative="1" as="geometry">
            <mxPoint x="750" y="334" as="sourcePoint" />
            <mxPoint x="640" y="114" as="targetPoint" />
          </mxGeometry>
        </mxCell>
        <mxCell id="QJylgjxsBixMPj3OxCuE-48" value="" style="endArrow=none;html=1;rounded=0;exitX=0.5;exitY=0;exitDx=0;exitDy=0;" parent="1" source="QJylgjxsBixMPj3OxCuE-4" edge="1">
          <mxGeometry width="50" height="50" relative="1" as="geometry">
            <mxPoint x="730" y="304" as="sourcePoint" />
            <mxPoint x="640" y="114" as="targetPoint" />
          </mxGeometry>
        </mxCell>
        <mxCell id="QJylgjxsBixMPj3OxCuE-49" value="" style="endArrow=none;html=1;rounded=0;exitX=0.5;exitY=0;exitDx=0;exitDy=0;" parent="1" source="QJylgjxsBixMPj3OxCuE-37" edge="1">
          <mxGeometry width="50" height="50" relative="1" as="geometry">
            <mxPoint x="750" y="394" as="sourcePoint" />
            <mxPoint x="640" y="114" as="targetPoint" />
          </mxGeometry>
        </mxCell>
        <mxCell id="QJylgjxsBixMPj3OxCuE-50" value="井冈山菜品" style="swimlane;fontStyle=0;childLayout=stackLayout;horizontal=1;startSize=30;horizontalStack=0;resizeParent=1;resizeParentMax=0;resizeLast=0;collapsible=1;marginBottom=0;fontSize=14;fillColor=#d5e8d4;strokeColor=#82b366;" parent="1" vertex="1">
          <mxGeometry x="1410" y="644" width="270" height="90" as="geometry" />
        </mxCell>
        <mxCell id="QJylgjxsBixMPj3OxCuE-51" value="eleme_allowance_dish_food_stat_d_v3" style="text;strokeColor=none;fillColor=none;align=left;verticalAlign=middle;spacingLeft=4;spacingRight=4;overflow=hidden;points=[[0,0.5],[1,0.5]];portConstraint=eastwest;rotatable=0;fontSize=14;" parent="QJylgjxsBixMPj3OxCuE-50" vertex="1">
          <mxGeometry y="30" width="270" height="30" as="geometry" />
        </mxCell>
        <mxCell id="QJylgjxsBixMPj3OxCuE-52" value="2022.5.28-2022.6.27" style="text;strokeColor=none;fillColor=none;align=left;verticalAlign=middle;spacingLeft=4;spacingRight=4;overflow=hidden;points=[[0,0.5],[1,0.5]];portConstraint=eastwest;rotatable=0;fontSize=14;" parent="QJylgjxsBixMPj3OxCuE-50" vertex="1">
          <mxGeometry y="60" width="270" height="30" as="geometry" />
        </mxCell>
        <mxCell id="QJylgjxsBixMPj3OxCuE-54" value="井冈山商铺" style="swimlane;fontStyle=0;childLayout=stackLayout;horizontal=1;startSize=30;horizontalStack=0;resizeParent=1;resizeParentMax=0;resizeLast=0;collapsible=1;marginBottom=0;fontSize=14;fillColor=#d5e8d4;strokeColor=#82b366;" parent="1" vertex="1">
          <mxGeometry x="1200" y="844" width="260" height="90" as="geometry" />
        </mxCell>
        <mxCell id="QJylgjxsBixMPj3OxCuE-55" value="eleme_allowance_dish_shop_stat_d_v3" style="text;strokeColor=none;fillColor=none;align=left;verticalAlign=middle;spacingLeft=4;spacingRight=4;overflow=hidden;points=[[0,0.5],[1,0.5]];portConstraint=eastwest;rotatable=0;fontSize=14;" parent="QJylgjxsBixMPj3OxCuE-54" vertex="1">
          <mxGeometry y="30" width="260" height="30" as="geometry" />
        </mxCell>
        <mxCell id="QJylgjxsBixMPj3OxCuE-56" value="2022.4.58-2022.6.27" style="text;strokeColor=none;fillColor=none;align=left;verticalAlign=middle;spacingLeft=4;spacingRight=4;overflow=hidden;points=[[0,0.5],[1,0.5]];portConstraint=eastwest;rotatable=0;fontSize=14;" parent="QJylgjxsBixMPj3OxCuE-54" vertex="1">
          <mxGeometry y="60" width="260" height="30" as="geometry" />
        </mxCell>
        <mxCell id="QJylgjxsBixMPj3OxCuE-57" value="" style="endArrow=none;html=1;rounded=0;exitX=0.5;exitY=0;exitDx=0;exitDy=0;" parent="1" source="QJylgjxsBixMPj3OxCuE-50" target="QJylgjxsBixMPj3OxCuE-6" edge="1">
          <mxGeometry width="50" height="50" relative="1" as="geometry">
            <mxPoint x="1290" y="654" as="sourcePoint" />
            <mxPoint x="1340" y="604" as="targetPoint" />
          </mxGeometry>
        </mxCell>
        <mxCell id="QJylgjxsBixMPj3OxCuE-58" value="" style="endArrow=none;html=1;rounded=0;entryX=0.51;entryY=1.1;entryDx=0;entryDy=0;entryPerimeter=0;exitX=0.5;exitY=0;exitDx=0;exitDy=0;" parent="1" source="QJylgjxsBixMPj3OxCuE-54" target="QJylgjxsBixMPj3OxCuE-39" edge="1">
          <mxGeometry width="50" height="50" relative="1" as="geometry">
            <mxPoint x="1110" y="804" as="sourcePoint" />
            <mxPoint x="1160" y="754" as="targetPoint" />
          </mxGeometry>
        </mxCell>
        <mxCell id="QJylgjxsBixMPj3OxCuE-59" value="" style="endArrow=classic;html=1;rounded=0;entryX=0.5;entryY=0;entryDx=0;entryDy=0;exitX=0.503;exitY=1.123;exitDx=0;exitDy=0;exitPerimeter=0;" parent="1" source="QJylgjxsBixMPj3OxCuE-52" target="QJylgjxsBixMPj3OxCuE-54" edge="1">
          <mxGeometry width="50" height="50" relative="1" as="geometry">
            <mxPoint x="1536.3600000000001" y="764.7500000000002" as="sourcePoint" />
            <mxPoint x="1590" y="684" as="targetPoint" />
          </mxGeometry>
        </mxCell>
        <mxCell id="QJylgjxsBixMPj3OxCuE-60" value="样本" style="swimlane;fontStyle=0;childLayout=stackLayout;horizontal=1;startSize=30;horizontalStack=0;resizeParent=1;resizeParentMax=0;resizeLast=0;collapsible=1;marginBottom=0;fontSize=14;" parent="1" vertex="1">
          <mxGeometry x="460" y="14" width="350" height="100" as="geometry" />
        </mxCell>
        <mxCell id="QJylgjxsBixMPj3OxCuE-61" value="alsc_algo_ug.fg_eleme_allowance_dish_sample_d_v3" style="text;strokeColor=none;fillColor=none;align=left;verticalAlign=middle;spacingLeft=4;spacingRight=4;overflow=hidden;points=[[0,0.5],[1,0.5]];portConstraint=eastwest;rotatable=0;fontSize=14;" parent="QJylgjxsBixMPj3OxCuE-60" vertex="1">
          <mxGeometry y="30" width="350" height="30" as="geometry" />
        </mxCell>
        <mxCell id="QJylgjxsBixMPj3OxCuE-62" value="2022.6.20-2022.6.21" style="text;strokeColor=none;fillColor=none;align=left;verticalAlign=middle;spacingLeft=4;spacingRight=4;overflow=hidden;points=[[0,0.5],[1,0.5]];portConstraint=eastwest;rotatable=0;fontSize=14;" parent="QJylgjxsBixMPj3OxCuE-60" vertex="1">
          <mxGeometry y="60" width="350" height="40" as="geometry" />
        </mxCell>
      </root>
    </mxGraphModel>
  </diagram>
</mxfile>
